<svg xmlns="http://www.w3.org/2000/svg" viewBox="0 0 375 812" width="375" height="812">
  <!-- Background: Isometric Room (Placeholder) -->
  <rect width="375" height="812" fill="#E8E2D9" />
  <path d="M0,400 L187.5,300 L375,400 L187.5,500 Z" fill="#D2B48C" opacity="0.5" />
  <text x="187.5" y="400" font-family="sans-serif" font-size="20" fill="#8CAA8C" text-anchor="middle">Isometric Room Area</text>

  <!-- Top Bar: Status HUD -->
  <rect x="16" y="44" width="343" height="60" rx="30" fill="#F4F1ED" stroke="#8CAA8C" stroke-width="2" />
  <circle cx="46" cy="74" r="20" fill="#D2B48C" />
  <text x="46" y="80" font-family="sans-serif" font-size="16" fill="#FFF" text-anchor="middle">LV</text>
  <text x="80" y="80" font-family="sans-serif" font-size="18" fill="#5A6C5A" font-weight="bold">Lvl 12</text>

  <circle cx="270" cy="74" r="14" fill="#FFD700" />
  <text x="295" y="80" font-family="sans-serif" font-size="16" fill="#5A6C5A" font-weight="bold">1,240</text>
  <circle cx="335" cy="74" r="14" fill="#FF6B6B" />
  <text x="335" y="79" font-family="sans-serif" font-size="12" fill="#FFF" text-anchor="middle">🔥</text>

  <!-- Bottom Bar: Centralized Quick-Action HUD -->
  <rect x="16" y="720" width="343" height="70" rx="35" fill="#F4F1ED" stroke="#8CAA8C" stroke-width="2" />

  <!-- Icon 1: Home/Room -->
  <circle cx="60" cy="755" r="24" fill="#8CAA8C" />
  <text x="60" y="762" font-family="sans-serif" font-size="20" fill="#FFF" text-anchor="middle">🏠</text>

  <!-- Icon 2: Quiz/Study (Prominent) -->
  <circle cx="145" cy="755" r="24" fill="#D2B48C" />
  <text x="145" y="762" font-family="sans-serif" font-size="20" fill="#FFF" text-anchor="middle">📚</text>

  <!-- Icon 3: Shop -->
  <circle cx="230" cy="755" r="24" fill="#D2B48C" />
  <text x="230" y="762" font-family="sans-serif" font-size="20" fill="#FFF" text-anchor="middle">🛒</text>

  <!-- Icon 4: Friends/Social -->
  <circle cx="315" cy="755" r="24" fill="#D2B48C" />
  <text x="315" y="762" font-family="sans-serif" font-size="20" fill="#FFF" text-anchor="middle">👥</text>
</svg>
